<?xml version="1.0" encoding="utf-8"?>
<!-- Generator: Adobe Illustrator 18.0.0, SVG Export Plug-In . SVG Version: 6.00 Build 0)  -->
<!DOCTYPE svg PUBLIC "-//W3C//DTD SVG 1.1//EN" "http://www.w3.org/Graphics/SVG/1.1/DTD/svg11.dtd">
<svg version="1.1" id="Layer_1" xmlns="http://www.w3.org/2000/svg" xmlns:xlink="http://www.w3.org/1999/xlink" x="0px" y="0px"
	 viewBox="0 0 300 300" enable-background="new 0 0 300 300" xml:space="preserve">
<polygon fill="#5496D1" points="150,4.4 150,4.4 150,4.4 14.5,52.8 35.1,232 150,295.6 150,295.6 150,295.6 264.9,232 285.5,52.8 
	"/>
<polygon fill="#427093" points="150,4.4 150,36.7 150,36.6 150,184.1 150,184.1 150,295.6 150,295.6 264.9,232 285.5,52.8 "/>
<path fill="#FFFFFF" d="M153.2,225.4c-21.1,0-40.5-7.7-55.4-20.5l-36.8,5l14.2-35.1c-4.9-10.9-7.7-23-7.7-35.8
	c0-47.7,38.4-86.3,85.7-86.3c47.3,0,85.7,38.7,85.7,86.3C238.9,186.7,200.6,225.4,153.2,225.4z M200,138.8v-0.2
	c0-24.9-17.6-42.7-47.9-42.7h-32.7v86.3h32.2C182.2,182.2,200,163.7,200,138.8L200,138.8z M152.5,161h-9.6v-43.9h9.6
	c14.1,0,23.4,8,23.4,21.8v0.2C175.9,153.1,166.6,161,152.5,161z"/>
</svg>
