<?xml version="1.0" encoding="utf-8"?>
<!-- Generator: Adobe Illustrator 18.0.0, SVG Export Plug-In . SVG Version: 6.00 Build 0)  -->
<!DOCTYPE svg PUBLIC "-//W3C//DTD SVG 1.1//EN" "http://www.w3.org/Graphics/SVG/1.1/DTD/svg11.dtd">
<svg version="1.1" id="Layer_1" xmlns="http://www.w3.org/2000/svg" xmlns:xlink="http://www.w3.org/1999/xlink" x="0px" y="0px"
	 viewBox="0 0 455.8 489.6" enable-background="new 0 0 455.8 489.6" xml:space="preserve">
<polygon fill="#5496D1" points="227.9,0 227.9,0 227.9,0 0,81.3 34.8,382.6 227.9,489.6 227.9,489.6 227.9,489.6 421.1,382.6 
	455.8,81.3 "/>
<polygon fill="#427093" points="227.9,0 227.9,54.3 227.9,54.1 227.9,302.1 227.9,302.1 227.9,489.6 227.9,489.6 421.1,382.6 
	455.8,81.3 "/>
<path fill="#FFFFFF" d="M225.3,382.3c-35.5,0-68-13-93.1-34.5l-61.8,8.4l23.9-58.9c-8.3-18.4-13-38.7-13-60.2
	c0-80.2,64.5-145.2,144.1-145.2c79.6,0,144.1,65,144.1,145.2C369.3,317.3,304.8,382.3,225.3,382.3z M303.9,236.7v-0.4
	c0-41.9-29.5-71.8-80.5-71.8h-55v145.2h54.2C273.9,309.7,303.9,278.6,303.9,236.7L303.9,236.7z M224,274.1h-16.1v-73.8H224
	c23.6,0,39.3,13.5,39.3,36.7v0.4C263.4,260.8,247.7,274.1,224,274.1z"/>
</svg>
